<svg xmlns="http://www.w3.org/2000/svg" viewBox="0 0 388 388"><defs><style>.cls-1{fill:#93278f;}</style></defs><g id="Camada_2" data-name="Camada 2"><g id="Camada_1-2" data-name="Camada 1"><path class="cls-1" d="M288.15,0H99.85A99.84,99.84,0,0,0,0,99.85v188.3A99.84,99.84,0,0,0,99.85,388h188.3A99.84,99.84,0,0,0,388,288.15V99.85A99.84,99.84,0,0,0,288.15,0Zm38.14,212.71H307.37V326.22a19,19,0,0,1-18.92,18.92H231.69V250.55a19,19,0,0,0-18.91-18.92H174.94A19,19,0,0,0,156,250.55v94.59H99.26a19,19,0,0,1-18.91-18.92V212.71H61.43a18.61,18.61,0,0,1-18.92-18.92c0-8.29,4.5-12.77,10.4-18.92l122-121.93c5.16-4.88,9.89-10.5,18.92-10.5s13.75,5.62,18.92,10.5l37.83,37.8V80.28a19,19,0,0,1,18.92-18.92h18.92a19,19,0,0,1,18.92,18.92v67.18l27.43,27.41c5.9,6.15,10.4,10.63,10.4,18.92A18.61,18.61,0,0,1,326.29,212.71Z"/></g></g></svg>